<svg xmlns="http://www.w3.org/2000/svg" viewBox="0 0 1100 700" width="1100" height="700">
  <!-- Background -->
  <rect width="1100" height="700" rx="12" fill="#0d0d12"/>

  <!-- Header -->
  <text x="28" y="36" font-family="monospace" font-size="10" fill="#00e5a0" letter-spacing="0.2em">AUDIO EDITOR</text>
  <text x="28" y="62" font-family="sans-serif" font-size="24" fill="#e2e8f0" font-weight="800">sample-track.mp3</text>
  <text x="28" y="80" font-family="monospace" font-size="11" fill="#475569">3:24.7 · 44.1 kHz · stereo</text>
  <!-- Load file button -->
  <rect x="960" y="22" width="110" height="34" rx="8" fill="rgba(0,229,160,0.1)" stroke="rgba(0,229,160,0.3)"/>
  <text x="1015" y="44" font-family="monospace" font-size="11" fill="#00e5a0" text-anchor="middle">LOAD FILE</text>

  <!-- Waveform surface card -->
  <rect x="20" y="96" width="1060" height="180" rx="12" fill="#13131c" stroke="rgba(255,255,255,0.07)"/>

  <!-- Waveform background -->
  <rect x="30" y="106" width="1040" height="140" rx="8" fill="#1a1a28"/>

  <!-- Waveform bars (dimmed outside trim, bright inside) -->
  <!-- Left dim region -->
  <g opacity="0.25">
    <rect x="40" y="155" width="3" height="38" rx="1" fill="#00e5a0"/><rect x="47" y="148" width="3" height="52" rx="1" fill="#00e5a0"/>
    <rect x="54" y="160" width="3" height="28" rx="1" fill="#00e5a0"/><rect x="61" y="152" width="3" height="44" rx="1" fill="#00e5a0"/>
    <rect x="68" y="158" width="3" height="32" rx="1" fill="#00e5a0"/><rect x="75" y="165" width="3" height="18" rx="1" fill="#00e5a0"/>
    <rect x="82" y="155" width="3" height="38" rx="1" fill="#00e5a0"/><rect x="89" y="162" width="3" height="24" rx="1" fill="#00e5a0"/>
    <rect x="96" y="150" width="3" height="48" rx="1" fill="#00e5a0"/><rect x="103" y="158" width="3" height="32" rx="1" fill="#00e5a0"/>
    <rect x="110" y="163" width="3" height="22" rx="1" fill="#00e5a0"/><rect x="117" y="155" width="3" height="38" rx="1" fill="#00e5a0"/>
    <rect x="124" y="148" width="3" height="52" rx="1" fill="#00e5a0"/><rect x="131" y="158" width="3" height="32" rx="1" fill="#00e5a0"/>
    <rect x="138" y="162" width="3" height="24" rx="1" fill="#00e5a0"/><rect x="145" y="155" width="3" height="38" rx="1" fill="#00e5a0"/>
    <rect x="152" y="160" width="3" height="28" rx="1" fill="#00e5a0"/><rect x="159" y="165" width="3" height="18" rx="1" fill="#00e5a0"/>
    <rect x="166" y="158" width="3" height="32" rx="1" fill="#00e5a0"/><rect x="173" y="152" width="3" height="44" rx="1" fill="#00e5a0"/>
  </g>

  <!-- IN trim handle -->
  <rect x="180" y="106" width="3" height="140" fill="#00e5a0"/>
  <rect x="174" y="106" width="16" height="14" rx="4" fill="#00e5a0"/>
  <text x="182" y="116" font-family="monospace" font-size="8" fill="#0d0d12" text-anchor="middle">IN</text>

  <!-- Bright trim region -->
  <g opacity="1">
    <rect x="186" y="140" width="3" height="68" rx="1" fill="#00e5a0"/><rect x="193" y="130" width="3" height="88" rx="1" fill="#00e5a0"/>
    <rect x="200" y="145" width="3" height="58" rx="1" fill="#00e5a0"/><rect x="207" y="135" width="3" height="78" rx="1" fill="#00e5a0"/>
    <rect x="214" y="125" width="3" height="98" rx="1" fill="#00e5a0"/><rect x="221" y="140" width="3" height="68" rx="1" fill="#00e5a0"/>
    <rect x="228" y="148" width="3" height="52" rx="1" fill="#00e5a0"/><rect x="235" y="132" width="3" height="84" rx="1" fill="#00e5a0"/>
    <rect x="242" y="120" width="3" height="108" rx="1" fill="#00e5a0"/><rect x="249" y="128" width="3" height="92" rx="1" fill="#00e5a0"/>
    <rect x="256" y="138" width="3" height="72" rx="1" fill="#00e5a0"/><rect x="263" y="145" width="3" height="58" rx="1" fill="#00e5a0"/>
    <rect x="270" y="130" width="3" height="88" rx="1" fill="#00e5a0"/><rect x="277" y="122" width="3" height="104" rx="1" fill="#00e5a0"/>
    <rect x="284" y="135" width="3" height="78" rx="1" fill="#00e5a0"/><rect x="291" y="142" width="3" height="64" rx="1" fill="#00e5a0"/>
    <rect x="298" y="128" width="3" height="92" rx="1" fill="#00e5a0"/><rect x="305" y="118" width="3" height="112" rx="1" fill="#00e5a0"/>
    <rect x="312" y="130" width="3" height="88" rx="1" fill="#00e5a0"/><rect x="319" y="140" width="3" height="68" rx="1" fill="#00e5a0"/>
    <rect x="326" y="125" width="3" height="98" rx="1" fill="#00e5a0"/><rect x="333" y="135" width="3" height="78" rx="1" fill="#00e5a0"/>
    <rect x="340" y="145" width="3" height="58" rx="1" fill="#00e5a0"/><rect x="347" y="132" width="3" height="84" rx="1" fill="#00e5a0"/>
    <rect x="354" y="120" width="3" height="108" rx="1" fill="#00e5a0"/><rect x="361" y="138" width="3" height="72" rx="1" fill="#00e5a0"/>
    <rect x="368" y="128" width="3" height="92" rx="1" fill="#00e5a0"/><rect x="375" y="115" width="3" height="118" rx="1" fill="#00e5a0"/>
    <rect x="382" y="130" width="3" height="88" rx="1" fill="#00e5a0"/><rect x="389" y="140" width="3" height="68" rx="1" fill="#00e5a0"/>
    <rect x="396" y="135" width="3" height="78" rx="1" fill="#00e5a0"/><rect x="403" y="122" width="3" height="104" rx="1" fill="#00e5a0"/>
    <rect x="410" y="138" width="3" height="72" rx="1" fill="#00e5a0"/><rect x="417" y="130" width="3" height="88" rx="1" fill="#00e5a0"/>
    <rect x="424" y="142" width="3" height="64" rx="1" fill="#00e5a0"/><rect x="431" y="118" width="3" height="112" rx="1" fill="#00e5a0"/>
    <rect x="438" y="135" width="3" height="78" rx="1" fill="#00e5a0"/><rect x="445" y="128" width="3" height="92" rx="1" fill="#00e5a0"/>
    <rect x="452" y="140" width="3" height="68" rx="1" fill="#00e5a0"/><rect x="459" y="125" width="3" height="98" rx="1" fill="#00e5a0"/>
    <rect x="466" y="132" width="3" height="84" rx="1" fill="#00e5a0"/><rect x="473" y="145" width="3" height="58" rx="1" fill="#00e5a0"/>
    <rect x="480" y="130" width="3" height="88" rx="1" fill="#00e5a0"/><rect x="487" y="138" width="3" height="72" rx="1" fill="#00e5a0"/>
    <rect x="494" y="120" width="3" height="108" rx="1" fill="#00e5a0"/><rect x="501" y="135" width="3" height="78" rx="1" fill="#00e5a0"/>
    <rect x="508" y="142" width="3" height="64" rx="1" fill="#00e5a0"/><rect x="515" y="128" width="3" height="92" rx="1" fill="#00e5a0"/>
    <rect x="522" y="138" width="3" height="72" rx="1" fill="#00e5a0"/><rect x="529" y="122" width="3" height="104" rx="1" fill="#00e5a0"/>
    <rect x="536" y="135" width="3" height="78" rx="1" fill="#00e5a0"/><rect x="543" y="140" width="3" height="68" rx="1" fill="#00e5a0"/>
    <rect x="550" y="130" width="3" height="88" rx="1" fill="#00e5a0"/><rect x="557" y="145" width="3" height="58" rx="1" fill="#00e5a0"/>
    <rect x="564" y="125" width="3" height="98" rx="1" fill="#00e5a0"/><rect x="571" y="138" width="3" height="72" rx="1" fill="#00e5a0"/>
    <rect x="578" y="130" width="3" height="88" rx="1" fill="#00e5a0"/><rect x="585" y="142" width="3" height="64" rx="1" fill="#00e5a0"/>
    <rect x="592" y="120" width="3" height="108" rx="1" fill="#00e5a0"/><rect x="599" y="135" width="3" height="78" rx="1" fill="#00e5a0"/>
    <rect x="606" y="128" width="3" height="92" rx="1" fill="#00e5a0"/><rect x="613" y="140" width="3" height="68" rx="1" fill="#00e5a0"/>
    <rect x="620" y="132" width="3" height="84" rx="1" fill="#00e5a0"/><rect x="627" y="125" width="3" height="98" rx="1" fill="#00e5a0"/>
    <rect x="634" y="138" width="3" height="72" rx="1" fill="#00e5a0"/><rect x="641" y="130" width="3" height="88" rx="1" fill="#00e5a0"/>
    <rect x="648" y="142" width="3" height="64" rx="1" fill="#00e5a0"/><rect x="655" y="118" width="3" height="112" rx="1" fill="#00e5a0"/>
    <rect x="662" y="135" width="3" height="78" rx="1" fill="#00e5a0"/><rect x="669" y="128" width="3" height="92" rx="1" fill="#00e5a0"/>
    <rect x="676" y="140" width="3" height="68" rx="1" fill="#00e5a0"/><rect x="683" y="132" width="3" height="84" rx="1" fill="#00e5a0"/>
    <rect x="690" y="145" width="3" height="58" rx="1" fill="#00e5a0"/><rect x="697" y="125" width="3" height="98" rx="1" fill="#00e5a0"/>
    <rect x="704" y="138" width="3" height="72" rx="1" fill="#00e5a0"/><rect x="711" y="128" width="3" height="92" rx="1" fill="#00e5a0"/>
    <rect x="718" y="135" width="3" height="78" rx="1" fill="#00e5a0"/><rect x="725" y="122" width="3" height="104" rx="1" fill="#00e5a0"/>
    <rect x="732" y="140" width="3" height="68" rx="1" fill="#00e5a0"/><rect x="739" y="130" width="3" height="88" rx="1" fill="#00e5a0"/>
  </g>

  <!-- Playhead -->
  <rect x="430" y="106" width="2" height="140" fill="white"/>
  <polygon points="424,106 436,106 430,100" fill="white"/>

  <!-- OUT trim handle -->
  <rect x="745" y="106" width="3" height="140" fill="#f59e0b"/>
  <rect x="738" y="106" width="16" height="14" rx="4" fill="#f59e0b"/>
  <text x="746" y="116" font-family="monospace" font-size="8" fill="#0d0d12" text-anchor="middle">OUT</text>

  <!-- Right dim region -->
  <g opacity="0.25">
    <rect x="752" y="148" width="3" height="52" rx="1" fill="#00e5a0"/><rect x="759" y="155" width="3" height="38" rx="1" fill="#00e5a0"/>
    <rect x="766" y="160" width="3" height="28" rx="1" fill="#00e5a0"/><rect x="773" y="152" width="3" height="44" rx="1" fill="#00e5a0"/>
    <rect x="780" y="158" width="3" height="32" rx="1" fill="#00e5a0"/><rect x="787" y="148" width="3" height="52" rx="1" fill="#00e5a0"/>
    <rect x="794" y="155" width="3" height="38" rx="1" fill="#00e5a0"/><rect x="801" y="162" width="3" height="24" rx="1" fill="#00e5a0"/>
    <rect x="808" y="150" width="3" height="48" rx="1" fill="#00e5a0"/><rect x="815" y="158" width="3" height="32" rx="1" fill="#00e5a0"/>
    <rect x="822" y="155" width="3" height="38" rx="1" fill="#00e5a0"/><rect x="829" y="163" width="3" height="22" rx="1" fill="#00e5a0"/>
    <rect x="836" y="158" width="3" height="32" rx="1" fill="#00e5a0"/><rect x="843" y="152" width="3" height="44" rx="1" fill="#00e5a0"/>
    <rect x="850" y="148" width="3" height="52" rx="1" fill="#00e5a0"/><rect x="857" y="160" width="3" height="28" rx="1" fill="#00e5a0"/>
    <rect x="864" y="155" width="3" height="38" rx="1" fill="#00e5a0"/><rect x="871" y="162" width="3" height="24" rx="1" fill="#00e5a0"/>
    <rect x="878" y="150" width="3" height="48" rx="1" fill="#00e5a0"/><rect x="885" y="158" width="3" height="32" rx="1" fill="#00e5a0"/>
    <rect x="892" y="163" width="3" height="22" rx="1" fill="#00e5a0"/><rect x="899" y="155" width="3" height="38" rx="1" fill="#00e5a0"/>
    <rect x="906" y="148" width="3" height="52" rx="1" fill="#00e5a0"/><rect x="913" y="160" width="3" height="28" rx="1" fill="#00e5a0"/>
    <rect x="920" y="155" width="3" height="38" rx="1" fill="#00e5a0"/><rect x="927" y="162" width="3" height="24" rx="1" fill="#00e5a0"/>
    <rect x="934" y="152" width="3" height="44" rx="1" fill="#00e5a0"/><rect x="941" y="158" width="3" height="32" rx="1" fill="#00e5a0"/>
    <rect x="948" y="150" width="3" height="48" rx="1" fill="#00e5a0"/><rect x="955" y="155" width="3" height="38" rx="1" fill="#00e5a0"/>
    <rect x="962" y="163" width="3" height="22" rx="1" fill="#00e5a0"/><rect x="969" y="158" width="3" height="32" rx="1" fill="#00e5a0"/>
    <rect x="976" y="152" width="3" height="44" rx="1" fill="#00e5a0"/><rect x="983" y="160" width="3" height="28" rx="1" fill="#00e5a0"/>
    <rect x="990" y="148" width="3" height="52" rx="1" fill="#00e5a0"/><rect x="997" y="155" width="3" height="38" rx="1" fill="#00e5a0"/>
    <rect x="1004" y="162" width="3" height="24" rx="1" fill="#00e5a0"/><rect x="1011" y="158" width="3" height="32" rx="1" fill="#00e5a0"/>
    <rect x="1018" y="150" width="3" height="48" rx="1" fill="#00e5a0"/><rect x="1025" y="155" width="3" height="38" rx="1" fill="#00e5a0"/>
    <rect x="1032" y="163" width="3" height="22" rx="1" fill="#00e5a0"/><rect x="1039" y="158" width="3" height="32" rx="1" fill="#00e5a0"/>
    <rect x="1046" y="152" width="3" height="44" rx="1" fill="#00e5a0"/><rect x="1053" y="160" width="3" height="28" rx="1" fill="#00e5a0"/>
  </g>

  <!-- Time ruler -->
  <rect x="20" y="276" width="1060" height="20" rx="0" fill="#13131c"/>
  <line x1="130" y1="276" x2="130" y2="282" stroke="rgba(255,255,255,0.12)"/>
  <text x="132" y="291" font-family="monospace" font-size="9" fill="#475569">0:30</text>
  <line x1="280" y1="276" x2="280" y2="282" stroke="rgba(255,255,255,0.12)"/>
  <text x="282" y="291" font-family="monospace" font-size="9" fill="#475569">1:00</text>
  <line x1="430" y1="276" x2="430" y2="282" stroke="rgba(255,255,255,0.12)"/>
  <text x="432" y="291" font-family="monospace" font-size="9" fill="#475569">1:30</text>
  <line x1="580" y1="276" x2="580" y2="282" stroke="rgba(255,255,255,0.12)"/>
  <text x="582" y="291" font-family="monospace" font-size="9" fill="#475569">2:00</text>
  <line x1="730" y1="276" x2="730" y2="282" stroke="rgba(255,255,255,0.12)"/>
  <text x="732" y="291" font-family="monospace" font-size="9" fill="#475569">2:30</text>
  <line x1="880" y1="276" x2="880" y2="282" stroke="rgba(255,255,255,0.12)"/>
  <text x="882" y="291" font-family="monospace" font-size="9" fill="#475569">3:00</text>

  <!-- Transport row -->
  <rect x="20" y="306" width="1060" height="50" rx="12" fill="#13131c" stroke="rgba(255,255,255,0.07)"/>
  <!-- Play button -->
  <circle cx="58" cy="331" r="22" fill="#00e5a0"/>
  <polygon points="52,320 52,342 70,331" fill="#0d0d12"/>
  <!-- Stop button -->
  <circle cx="100" cy="331" r="18" fill="rgba(255,255,255,0.05)" stroke="rgba(255,255,255,0.07)"/>
  <rect x="92" y="323" width="16" height="16" rx="2" fill="#94a3b8"/>
  <!-- Loop button -->
  <circle cx="138" cy="331" r="18" fill="rgba(124,108,250,0.2)" stroke="#7c6cfa"/>
  <text x="138" y="335" font-family="monospace" font-size="11" fill="#7c6cfa" text-anchor="middle">⟳</text>
  <!-- Playhead time -->
  <text x="178" y="335" font-family="monospace" font-size="13" fill="#00e5a0">1:30.4</text>
  <!-- Zoom -->
  <rect x="280" y="318" width="28" height="28" rx="6" fill="rgba(255,255,255,0.05)"/>
  <text x="294" y="336" font-family="monospace" font-size="14" fill="#94a3b8" text-anchor="middle">−</text>
  <text x="322" y="336" font-family="monospace" font-size="11" fill="#475569">100%</text>
  <rect x="360" y="318" width="28" height="28" rx="6" fill="rgba(255,255,255,0.05)"/>
  <text x="374" y="336" font-family="monospace" font-size="14" fill="#94a3b8" text-anchor="middle">+</text>
  <!-- Gain slider label -->
  <text x="440" y="324" font-family="monospace" font-size="9" fill="#475569">GAIN</text>
  <rect x="440" y="332" width="100" height="3" rx="1.5" fill="rgba(255,255,255,0.1)"/>
  <rect x="440" y="332" width="50" height="3" rx="1.5" fill="#7c6cfa"/>
  <circle cx="490" cy="333" r="7" fill="#7c6cfa"/>
  <!-- Speed slider label -->
  <text x="580" y="324" font-family="monospace" font-size="9" fill="#475569">SPEED</text>
  <rect x="580" y="332" width="100" height="3" rx="1.5" fill="rgba(255,255,255,0.1)"/>
  <rect x="580" y="332" width="50" height="3" rx="1.5" fill="#00e5a0"/>
  <circle cx="630" cy="333" r="7" fill="#00e5a0"/>
  <text x="640" y="336" font-family="monospace" font-size="10" fill="#475569">1.0×</text>

  <!-- Effects rack toggle -->
  <text x="28" y="380" font-family="monospace" font-size="10" fill="#7c6cfa" letter-spacing="0.1em">▾ EFFECTS RACK</text>

  <!-- Effects Row 1 -->
  <rect x="20" y="392" width="346" height="90" rx="12" fill="#13131c" stroke="rgba(255,255,255,0.07)"/>
  <text x="36" y="412" font-family="monospace" font-size="10" fill="#a78bfa" letter-spacing="0.05em">3-BAND EQ</text>
  <text x="36" y="430" font-family="monospace" font-size="9" fill="#64748b">LOW</text>
  <rect x="66" y="426" width="60" height="3" rx="1.5" fill="rgba(255,255,255,0.1)"/><rect x="66" y="426" width="30" height="3" rx="1.5" fill="#a78bfa"/><circle cx="96" cy="427" r="5" fill="#a78bfa"/>
  <text x="36" y="448" font-family="monospace" font-size="9" fill="#64748b">MID</text>
  <rect x="66" y="444" width="60" height="3" rx="1.5" fill="rgba(255,255,255,0.1)"/><rect x="66" y="444" width="30" height="3" rx="1.5" fill="#a78bfa"/><circle cx="96" cy="445" r="5" fill="#a78bfa"/>
  <text x="36" y="466" font-family="monospace" font-size="9" fill="#64748b">HIGH</text>
  <rect x="66" y="462" width="60" height="3" rx="1.5" fill="rgba(255,255,255,0.1)"/><rect x="66" y="462" width="30" height="3" rx="1.5" fill="#a78bfa"/><circle cx="96" cy="463" r="5" fill="#a78bfa"/>
  <!-- Filter -->
  <text x="160" y="412" font-family="monospace" font-size="10" fill="#60a5fa" letter-spacing="0.05em">FILTER</text>
  <text x="160" y="430" font-family="monospace" font-size="9" fill="#64748b">FREQ</text>
  <rect x="194" y="426" width="60" height="3" rx="1.5" fill="rgba(255,255,255,0.1)"/><rect x="194" y="426" width="40" height="3" rx="1.5" fill="#60a5fa"/><circle cx="234" cy="427" r="5" fill="#60a5fa"/>
  <text x="160" y="448" font-family="monospace" font-size="9" fill="#64748b">Q</text>
  <rect x="194" y="444" width="60" height="3" rx="1.5" fill="rgba(255,255,255,0.1)"/><rect x="194" y="444" width="20" height="3" rx="1.5" fill="#60a5fa"/><circle cx="214" cy="445" r="5" fill="#60a5fa"/>
  <!-- Compressor -->
  <text x="280" y="412" font-family="monospace" font-size="10" fill="#2dd4bf" letter-spacing="0.05em">COMP</text>
  <text x="280" y="430" font-family="monospace" font-size="9" fill="#64748b">THR</text>
  <rect x="310" y="426" width="44" height="3" rx="1.5" fill="rgba(255,255,255,0.1)"/><rect x="310" y="426" width="22" height="3" rx="1.5" fill="#2dd4bf"/><circle cx="332" cy="427" r="5" fill="#2dd4bf"/>
  <text x="280" y="448" font-family="monospace" font-size="9" fill="#64748b">RAT</text>
  <rect x="310" y="444" width="44" height="3" rx="1.5" fill="rgba(255,255,255,0.1)"/><rect x="310" y="444" width="18" height="3" rx="1.5" fill="#2dd4bf"/><circle cx="328" cy="445" r="5" fill="#2dd4bf"/>

  <!-- Effects Row 2 -->
  <rect x="380" y="392" width="346" height="90" rx="12" fill="#13131c" stroke="rgba(255,255,255,0.07)"/>
  <text x="396" y="412" font-family="monospace" font-size="10" fill="#7c6cfa" letter-spacing="0.05em">DELAY</text>
  <text x="396" y="430" font-family="monospace" font-size="9" fill="#64748b">TIME</text>
  <rect x="432" y="426" width="60" height="3" rx="1.5" fill="rgba(255,255,255,0.1)"/><rect x="432" y="426" width="25" height="3" rx="1.5" fill="#7c6cfa"/><circle cx="457" cy="427" r="5" fill="#7c6cfa"/>
  <text x="396" y="448" font-family="monospace" font-size="9" fill="#64748b">FDBK</text>
  <rect x="432" y="444" width="60" height="3" rx="1.5" fill="rgba(255,255,255,0.1)"/><rect x="432" y="444" width="35" height="3" rx="1.5" fill="#7c6cfa"/><circle cx="467" cy="445" r="5" fill="#7c6cfa"/>
  <!-- Chorus -->
  <text x="520" y="412" font-family="monospace" font-size="10" fill="#f472b6" letter-spacing="0.05em">CHORUS</text>
  <text x="520" y="430" font-family="monospace" font-size="9" fill="#64748b">RATE</text>
  <rect x="556" y="426" width="52" height="3" rx="1.5" fill="rgba(255,255,255,0.1)"/><rect x="556" y="426" width="26" height="3" rx="1.5" fill="#f472b6"/><circle cx="582" cy="427" r="5" fill="#f472b6"/>
  <text x="520" y="448" font-family="monospace" font-size="9" fill="#64748b">DEPTH</text>
  <rect x="556" y="444" width="52" height="3" rx="1.5" fill="rgba(255,255,255,0.1)"/><rect x="556" y="444" width="30" height="3" rx="1.5" fill="#f472b6"/><circle cx="586" cy="445" r="5" fill="#f472b6"/>
  <!-- Distortion -->
  <text x="636" y="412" font-family="monospace" font-size="10" fill="#f87171" letter-spacing="0.05em">DIST</text>
  <text x="636" y="430" font-family="monospace" font-size="9" fill="#64748b">DRIVE</text>
  <rect x="672" y="426" width="44" height="3" rx="1.5" fill="rgba(255,255,255,0.1)"/><rect x="672" y="426" width="15" height="3" rx="1.5" fill="#f87171"/><circle cx="687" cy="427" r="5" fill="#f87171"/>

  <!-- Effects Row 3 -->
  <rect x="740" y="392" width="340" height="90" rx="12" fill="#13131c" stroke="rgba(255,255,255,0.07)"/>
  <text x="756" y="412" font-family="monospace" font-size="10" fill="#fb923c" letter-spacing="0.05em">TREMOLO</text>
  <text x="756" y="430" font-family="monospace" font-size="9" fill="#64748b">RATE</text>
  <rect x="792" y="426" width="50" height="3" rx="1.5" fill="rgba(255,255,255,0.1)"/><rect x="792" y="426" width="25" height="3" rx="1.5" fill="#fb923c"/><circle cx="817" cy="427" r="5" fill="#fb923c"/>
  <!-- Reverb -->
  <text x="866" y="412" font-family="monospace" font-size="10" fill="#f59e0b" letter-spacing="0.05em">REVERB</text>
  <text x="866" y="430" font-family="monospace" font-size="9" fill="#64748b">MIX</text>
  <rect x="896" y="426" width="50" height="3" rx="1.5" fill="rgba(255,255,255,0.1)"/><rect x="896" y="426" width="20" height="3" rx="1.5" fill="#f59e0b"/><circle cx="916" cy="427" r="5" fill="#f59e0b"/>
  <!-- Stereo Pan -->
  <text x="970" y="412" font-family="monospace" font-size="10" fill="#34d399" letter-spacing="0.05em">PAN</text>
  <text x="970" y="430" font-family="monospace" font-size="9" fill="#64748b">L/R</text>
  <rect x="996" y="426" width="50" height="3" rx="1.5" fill="rgba(255,255,255,0.1)"/><rect x="996" y="426" width="25" height="3" rx="1.5" fill="#34d399"/><circle cx="1021" cy="427" r="5" fill="#34d399"/>

  <!-- Jam Session bar -->
  <rect x="20" y="500" width="1060" height="44" rx="12" fill="#13131c" stroke="rgba(255,255,255,0.07)"/>
  <text x="36" y="526" font-family="monospace" font-size="10" fill="#475569" letter-spacing="0.1em">JAM SESSION</text>
  <rect x="170" y="510" width="60" height="26" rx="8" fill="rgba(255,255,255,0.05)" stroke="rgba(255,255,255,0.07)"/>
  <text x="200" y="527" font-family="monospace" font-size="10" fill="#94a3b8" text-anchor="middle">🎤 MIC</text>
  <rect x="240" y="510" width="60" height="26" rx="8" fill="rgba(255,255,255,0.05)" stroke="rgba(255,255,255,0.07)"/>
  <circle cx="256" cy="523" r="4" fill="#f87171"/>
  <text x="276" y="527" font-family="monospace" font-size="10" fill="#94a3b8">REC</text>
  <text x="320" y="527" font-family="monospace" font-size="10" fill="#475569">0:00.0</text>

  <!-- Trim region bar -->
  <rect x="20" y="556" width="1060" height="44" rx="12" fill="#13131c" stroke="rgba(255,255,255,0.07)"/>
  <rect x="36" y="568" width="10" height="20" rx="3" fill="#00e5a0"/>
  <text x="54" y="582" font-family="monospace" font-size="10" fill="#475569">IN 0:28.3</text>
  <rect x="160" y="568" width="10" height="20" rx="3" fill="#f59e0b"/>
  <text x="178" y="582" font-family="monospace" font-size="10" fill="#475569">OUT 2:45.1</text>
  <text x="310" y="582" font-family="monospace" font-size="10" fill="#e2e8f0">DURATION 2:16.8</text>
  <!-- Reset -->
  <rect x="860" y="565" width="70" height="28" rx="8" fill="rgba(255,255,255,0.05)" stroke="rgba(255,255,255,0.07)"/>
  <text x="895" y="583" font-family="monospace" font-size="10" fill="#64748b" text-anchor="middle">RESET</text>
  <!-- Export -->
  <rect x="940" y="565" width="120" height="28" rx="8" fill="rgba(124,108,250,0.2)" stroke="rgba(124,108,250,0.4)"/>
  <text x="1000" y="583" font-family="monospace" font-size="10" fill="#7c6cfa" text-anchor="middle">EXPORT TRIM</text>
</svg>